<svg width="141" height="54" viewBox="0 0 141 54" fill="none" xmlns="http://www.w3.org/2000/svg">
<g clip-path="url(#clip0_12586_30342)">
<path d="M0 0.248291H6.42132L17.7507 30.8887L28.9894 0.248291H35.4107L22.567 35.9345H12.8886L0 0.248291Z" fill="#EE2737"/>
<path d="M36.374 0.248291H43.2546L54.0799 19.8807L64.9042 0.248291H71.7847L57.1064 25.7521V35.9356H51.0054V25.7521L36.374 0.248291Z" fill="#EE2737"/>
<path d="M75.3162 0.248291H81.4171L98.9853 25.9357V0.248291H105.132V35.9345H98.9853L81.4171 10.2471V35.9345H75.3162V0.248291Z" fill="#EE2737"/>
<path d="M111.184 0.248291H133.339C135.418 0.248291 137.215 1.0049 138.728 2.5192C140.241 4.03242 140.999 5.82991 140.999 7.90839V28.2744C140.999 30.354 140.242 32.1504 138.728 33.6636C137.214 35.1768 135.417 35.9345 133.339 35.9345H111.184V0.248291ZM117.285 6.16557V30.0173H130.908C131.979 30.0173 132.904 29.6433 133.683 28.8933C134.463 28.1443 134.853 27.2347 134.853 26.1643V10.0645C134.853 8.9941 134.463 8.07677 133.683 7.3125C132.904 6.54824 131.979 6.16557 130.908 6.16557H117.285Z" fill="#EE2737"/>
<path d="M7.73018 44.6432H9.52002L12.7181 53.1342H11.5067L10.644 50.8863H6.60511L5.74245 53.1342H4.53101L7.72909 44.6432H7.73018ZM7.03153 49.7732H10.2187L8.62565 45.6261L7.03262 49.7732H7.03153Z" fill="#EE2737"/>
<path d="M13.6101 44.6432H14.7669V53.1342H13.6101V44.6432Z" fill="#EE2737"/>
<path d="M19.5569 44.6432H24.5885C25.0827 44.6432 25.5113 44.8236 25.8711 45.1833C26.2308 45.543 26.4112 45.9705 26.4112 46.4658V51.3116C26.4112 51.8069 26.2308 52.2344 25.8711 52.5941C25.5113 52.9538 25.0838 53.1342 24.5885 53.1342H19.5569V44.6432ZM20.7137 45.7562V52.0212H24.1512C24.4497 52.0212 24.7077 51.914 24.9264 51.6997C25.1451 51.4854 25.2533 51.2285 25.2533 50.93V46.8485C25.2533 46.55 25.144 46.2942 24.9264 46.0788C24.7077 45.8645 24.4497 45.7573 24.1512 45.7573H20.7137V45.7562Z" fill="#EE2737"/>
<path d="M27.9692 47.066H29.0276V48.0369C29.1512 47.7385 29.3491 47.5023 29.6224 47.3273C29.8957 47.1524 30.1877 47.0649 30.5015 47.0649H31.4724V48.0796H30.1844C29.864 48.0796 29.5918 48.1922 29.3655 48.4174C29.1391 48.6427 29.0276 48.9127 29.0276 49.2254V53.1331H27.9692V47.0649V47.066Z" fill="#EE2737"/>
<path d="M32.2673 44.6432H33.4897V45.636H32.2673V44.6432ZM32.3439 47.0661H33.4022V53.1342H32.3439V47.0661Z" fill="#EE2737"/>
<path d="M34.3076 47.066H35.4425L37.1777 51.9228L38.9019 47.066H40.0368L37.7014 53.1342H36.643L34.3076 47.066Z" fill="#EE2737"/>
<path d="M42.1426 47.066H44.9689C45.3035 47.066 45.5889 47.1841 45.8261 47.4203C46.0623 47.6565 46.1804 47.9462 46.1804 48.2884V50.591H41.9895V51.5947C41.9895 51.7402 42.042 51.8659 42.1481 51.9709C42.253 52.0769 42.3755 52.1294 42.5132 52.1294H44.5983C44.7361 52.1294 44.8585 52.0769 44.9635 51.9709C45.0684 51.8659 45.122 51.7402 45.122 51.5947V51.2569H46.1804V51.9228C46.1804 52.265 46.0623 52.5525 45.8261 52.7854C45.59 53.0183 45.3035 53.1342 44.9689 53.1342H42.1426C41.8004 53.1342 41.5128 53.0183 41.2799 52.7854C41.047 52.5525 40.9312 52.265 40.9312 51.9228V48.2884C40.9312 47.9462 41.0492 47.6575 41.2854 47.4203C41.5216 47.183 41.8069 47.066 42.1426 47.066ZM41.9895 49.6201H45.122V48.6164C45.122 48.471 45.0695 48.3453 44.9635 48.2403C44.8574 48.1353 44.7361 48.0818 44.5983 48.0818H42.5132C42.3755 48.0818 42.253 48.1343 42.1481 48.2403C42.042 48.3464 41.9895 48.471 41.9895 48.6164V49.6201Z" fill="#EE2737"/>
<path d="M47.7395 47.066H48.7979V48.026C48.9214 47.7352 49.1182 47.5023 49.3872 47.3273C49.6562 47.1524 49.947 47.0649 50.2608 47.0649H51.7784C52.113 47.0649 52.3983 47.183 52.6356 47.4192C52.8717 47.6554 52.9898 47.9451 52.9898 48.2873V53.1331H51.9315V48.6142C51.9315 48.4688 51.879 48.3431 51.7729 48.2381C51.6669 48.1332 51.5455 48.0796 51.4077 48.0796H49.9557C49.6354 48.0796 49.3631 48.1922 49.1368 48.4174C48.9105 48.6427 48.799 48.9127 48.799 49.2254V53.1331H47.7406V47.0649L47.7395 47.066Z" fill="#EE2737"/>
<path d="M57.7876 44.6432H64.0963V45.7562H58.9444V48.3322H62.8849V49.4452H58.9444V52.0212H64.0963V53.1342H57.7876V44.6432Z" fill="#EE2737"/>
<path d="M64.3662 44.6432H71.2205V45.7562H68.3723V53.1342H67.2155V45.7562H64.3673V44.6432H64.3662Z" fill="#EE2737"/>
<path d="M74.6352 44.6432H76.425L79.6231 53.1342H78.4117L77.549 50.8863H73.5101L72.6475 53.1342H71.436L74.6341 44.6432H74.6352ZM73.9366 49.7732H77.1237L75.5307 45.6261L73.9376 49.7732H73.9366Z" fill="#EE2737"/>
<path d="M81.7256 47.066H84.5519C84.8789 47.066 85.1631 47.1885 85.4037 47.4312C85.6442 47.675 85.7634 47.9604 85.7634 48.2884V48.8996H84.705V48.6153C84.705 48.4699 84.6525 48.3442 84.5465 48.2392C84.4404 48.1343 84.3191 48.0807 84.1813 48.0807H82.0963C81.9585 48.0807 81.836 48.1332 81.7311 48.2392C81.625 48.3453 81.5725 48.4699 81.5725 48.6153V49.1063C81.5725 49.244 81.6228 49.3643 81.7256 49.466C81.8273 49.5677 81.9508 49.619 82.0963 49.619H84.5519C84.8865 49.619 85.1719 49.7404 85.4091 49.9842C85.6453 50.228 85.7634 50.5243 85.7634 50.8742V51.9217C85.7634 52.2639 85.6453 52.5514 85.4091 52.7843C85.173 53.0172 84.8865 53.1331 84.5519 53.1331H81.7256C81.3987 53.1331 81.1144 53.0128 80.8739 52.7734C80.6333 52.5328 80.5142 52.2497 80.5142 51.9217V51.3105H81.5725V51.5947C81.5725 51.7402 81.625 51.8659 81.7311 51.9709C81.836 52.0769 81.9585 52.1294 82.0963 52.1294H84.1813C84.3191 52.1294 84.4415 52.0769 84.5465 51.9709C84.6514 51.8659 84.705 51.7402 84.705 51.5947V51.1038C84.705 50.9661 84.6536 50.8458 84.5519 50.7441C84.4503 50.6424 84.3267 50.591 84.1813 50.591H81.7256C81.3834 50.591 81.0958 50.473 80.8629 50.2368C80.6301 50.0006 80.5142 49.7153 80.5142 49.3796V48.2884C80.5142 47.9462 80.6322 47.6575 80.8684 47.4203C81.1046 47.183 81.3899 47.066 81.7256 47.066Z" fill="#EE2737"/>
<path d="M139.149 48.6766H92.012V53.7466H139.149V48.6766Z" fill="#EE2737"/>
</g>
<defs>
<clipPath id="clip0_12586_30342">
<rect width="141" height="53.4993" fill="white" transform="translate(0 0.248291)"/>
</clipPath>
</defs>
</svg>
